<mxfile host="app.diagrams.net" modified="2021-07-15T15:33:11.258Z" agent="5.0 (Macintosh; Intel Mac OS X 10_15_7) AppleWebKit/537.36 (KHTML, like Gecko) Chrome/91.0.4472.114 Safari/537.36" etag="zkZOOmWwCmFVi5tYVeON" version="14.8.6" type="github">
  <diagram id="aPRGdW14rfqZKmhzjLCA" name="Page-1">
    <mxGraphModel dx="1188" dy="688" grid="1" gridSize="10" guides="1" tooltips="1" connect="1" arrows="1" fold="1" page="1" pageScale="1" pageWidth="827" pageHeight="1169" math="0" shadow="0">
      <root>
        <mxCell id="0" />
        <mxCell id="1" parent="0" />
        <mxCell id="pOUugHQpZifc-X2HbvZK-23" value="k8 cluster" style="rounded=0;whiteSpace=wrap;html=1;labelPosition=center;verticalLabelPosition=top;align=center;verticalAlign=bottom;" vertex="1" parent="1">
          <mxGeometry x="64" y="310" width="716" height="310" as="geometry" />
        </mxCell>
        <mxCell id="pOUugHQpZifc-X2HbvZK-3" value="k8 worker node 1" style="rounded=0;whiteSpace=wrap;html=1;labelPosition=center;verticalLabelPosition=top;align=center;verticalAlign=bottom;" vertex="1" parent="1">
          <mxGeometry x="344" y="360" width="60" height="190" as="geometry" />
        </mxCell>
        <mxCell id="pOUugHQpZifc-X2HbvZK-4" value="k8 worker node 2" style="rounded=0;whiteSpace=wrap;html=1;labelPosition=center;verticalLabelPosition=top;align=center;verticalAlign=bottom;" vertex="1" parent="1">
          <mxGeometry x="414" y="360" width="60" height="190" as="geometry" />
        </mxCell>
        <mxCell id="pOUugHQpZifc-X2HbvZK-5" value="k8 worker node 3" style="rounded=0;whiteSpace=wrap;html=1;labelPosition=center;verticalLabelPosition=top;align=center;verticalAlign=bottom;" vertex="1" parent="1">
          <mxGeometry x="484" y="360" width="60" height="190" as="geometry" />
        </mxCell>
        <mxCell id="pOUugHQpZifc-X2HbvZK-6" value="Pod 1" style="whiteSpace=wrap;html=1;aspect=fixed;" vertex="1" parent="1">
          <mxGeometry x="354" y="370" width="40" height="40" as="geometry" />
        </mxCell>
        <mxCell id="pOUugHQpZifc-X2HbvZK-7" value="Pod 1" style="whiteSpace=wrap;html=1;aspect=fixed;" vertex="1" parent="1">
          <mxGeometry x="424" y="370" width="40" height="40" as="geometry" />
        </mxCell>
        <mxCell id="pOUugHQpZifc-X2HbvZK-8" value="Pod 1" style="whiteSpace=wrap;html=1;aspect=fixed;" vertex="1" parent="1">
          <mxGeometry x="494" y="370" width="40" height="40" as="geometry" />
        </mxCell>
        <mxCell id="pOUugHQpZifc-X2HbvZK-9" value="Pod 2" style="whiteSpace=wrap;html=1;aspect=fixed;" vertex="1" parent="1">
          <mxGeometry x="354" y="420" width="40" height="40" as="geometry" />
        </mxCell>
        <mxCell id="pOUugHQpZifc-X2HbvZK-10" value="Pod 2" style="whiteSpace=wrap;html=1;aspect=fixed;" vertex="1" parent="1">
          <mxGeometry x="424" y="420" width="40" height="40" as="geometry" />
        </mxCell>
        <mxCell id="pOUugHQpZifc-X2HbvZK-12" value="Volume 1" style="rounded=0;whiteSpace=wrap;html=1;" vertex="1" parent="1">
          <mxGeometry x="349" y="470" width="50" height="30" as="geometry" />
        </mxCell>
        <mxCell id="pOUugHQpZifc-X2HbvZK-13" value="Volume 2" style="rounded=0;whiteSpace=wrap;html=1;" vertex="1" parent="1">
          <mxGeometry x="419" y="510" width="50" height="30" as="geometry" />
        </mxCell>
        <mxCell id="pOUugHQpZifc-X2HbvZK-15" value="There is a volume for each pod" style="text;html=1;align=left;verticalAlign=middle;resizable=0;points=[];autosize=1;strokeColor=none;" vertex="1" parent="1">
          <mxGeometry x="564" y="415" width="180" height="20" as="geometry" />
        </mxCell>
        <mxCell id="pOUugHQpZifc-X2HbvZK-16" value="Volume 2" style="rounded=0;whiteSpace=wrap;html=1;" vertex="1" parent="1">
          <mxGeometry x="349" y="510" width="50" height="30" as="geometry" />
        </mxCell>
        <mxCell id="pOUugHQpZifc-X2HbvZK-18" value="Volume 1" style="rounded=0;whiteSpace=wrap;html=1;" vertex="1" parent="1">
          <mxGeometry x="419" y="470" width="50" height="30" as="geometry" />
        </mxCell>
        <mxCell id="pOUugHQpZifc-X2HbvZK-19" value="Volume 1" style="rounded=0;whiteSpace=wrap;html=1;" vertex="1" parent="1">
          <mxGeometry x="489" y="470" width="50" height="30" as="geometry" />
        </mxCell>
        <mxCell id="pOUugHQpZifc-X2HbvZK-20" value="k8 master node" style="whiteSpace=wrap;html=1;aspect=fixed;labelPosition=center;verticalLabelPosition=top;align=center;verticalAlign=bottom;" vertex="1" parent="1">
          <mxGeometry x="74" y="360" width="190" height="190" as="geometry" />
        </mxCell>
        <mxCell id="pOUugHQpZifc-X2HbvZK-21" value="Controller manager" style="rounded=0;whiteSpace=wrap;html=1;" vertex="1" parent="1">
          <mxGeometry x="84" y="370" width="75" height="170" as="geometry" />
        </mxCell>
        <mxCell id="pOUugHQpZifc-X2HbvZK-22" value="API server (REST)" style="rounded=0;whiteSpace=wrap;html=1;" vertex="1" parent="1">
          <mxGeometry x="174" y="370" width="75" height="170" as="geometry" />
        </mxCell>
        <mxCell id="pOUugHQpZifc-X2HbvZK-28" style="edgeStyle=orthogonalEdgeStyle;rounded=0;orthogonalLoop=1;jettySize=auto;html=1;startArrow=classic;startFill=1;" edge="1" parent="1" source="pOUugHQpZifc-X2HbvZK-5">
          <mxGeometry relative="1" as="geometry">
            <mxPoint x="194" y="540" as="targetPoint" />
            <Array as="points">
              <mxPoint x="514" y="610" />
              <mxPoint x="194" y="610" />
            </Array>
          </mxGeometry>
        </mxCell>
        <mxCell id="pOUugHQpZifc-X2HbvZK-32" style="edgeStyle=orthogonalEdgeStyle;rounded=0;orthogonalLoop=1;jettySize=auto;html=1;entryX=1;entryY=0.25;entryDx=0;entryDy=0;" edge="1" parent="1" source="pOUugHQpZifc-X2HbvZK-31" target="pOUugHQpZifc-X2HbvZK-22">
          <mxGeometry relative="1" as="geometry" />
        </mxCell>
        <mxCell id="pOUugHQpZifc-X2HbvZK-33" value="HTTP REQUEST" style="edgeLabel;html=1;align=center;verticalAlign=middle;resizable=0;points=[];" vertex="1" connectable="0" parent="pOUugHQpZifc-X2HbvZK-32">
          <mxGeometry x="-0.4707" y="2" relative="1" as="geometry">
            <mxPoint as="offset" />
          </mxGeometry>
        </mxCell>
        <mxCell id="pOUugHQpZifc-X2HbvZK-31" value="Internet" style="ellipse;shape=cloud;whiteSpace=wrap;html=1;" vertex="1" parent="1">
          <mxGeometry x="140" y="100" width="120" height="80" as="geometry" />
        </mxCell>
        <mxCell id="pOUugHQpZifc-X2HbvZK-29" style="edgeStyle=orthogonalEdgeStyle;rounded=0;orthogonalLoop=1;jettySize=auto;html=1;entryX=0.5;entryY=1;entryDx=0;entryDy=0;startArrow=classic;startFill=1;" edge="1" parent="1" target="pOUugHQpZifc-X2HbvZK-22">
          <mxGeometry relative="1" as="geometry">
            <mxPoint x="444" y="550" as="sourcePoint" />
            <Array as="points">
              <mxPoint x="444" y="600" />
              <mxPoint x="212" y="600" />
            </Array>
          </mxGeometry>
        </mxCell>
        <mxCell id="pOUugHQpZifc-X2HbvZK-30" style="edgeStyle=orthogonalEdgeStyle;rounded=0;orthogonalLoop=1;jettySize=auto;html=1;entryX=0.671;entryY=1.007;entryDx=0;entryDy=0;entryPerimeter=0;startArrow=classic;startFill=1;" edge="1" parent="1" target="pOUugHQpZifc-X2HbvZK-22">
          <mxGeometry relative="1" as="geometry">
            <mxPoint x="374" y="550" as="sourcePoint" />
            <Array as="points">
              <mxPoint x="374" y="590" />
              <mxPoint x="224" y="590" />
            </Array>
          </mxGeometry>
        </mxCell>
        <mxCell id="pOUugHQpZifc-X2HbvZK-34" value="There can be multiple Containers&lt;br&gt;inside every Pod" style="text;html=1;align=left;verticalAlign=middle;resizable=0;points=[];autosize=1;strokeColor=none;" vertex="1" parent="1">
          <mxGeometry x="564" y="460" width="190" height="30" as="geometry" />
        </mxCell>
        <mxCell id="pOUugHQpZifc-X2HbvZK-36" style="edgeStyle=orthogonalEdgeStyle;rounded=0;orthogonalLoop=1;jettySize=auto;html=1;entryX=0.08;entryY=1;entryDx=0;entryDy=0;entryPerimeter=0;startArrow=none;startFill=0;" edge="1" parent="1" source="pOUugHQpZifc-X2HbvZK-35" target="pOUugHQpZifc-X2HbvZK-22">
          <mxGeometry relative="1" as="geometry" />
        </mxCell>
        <mxCell id="pOUugHQpZifc-X2HbvZK-37" value="kubectl" style="edgeLabel;html=1;align=center;verticalAlign=middle;resizable=0;points=[];" vertex="1" connectable="0" parent="pOUugHQpZifc-X2HbvZK-36">
          <mxGeometry x="-0.1805" y="-3" relative="1" as="geometry">
            <mxPoint as="offset" />
          </mxGeometry>
        </mxCell>
        <mxCell id="pOUugHQpZifc-X2HbvZK-35" value="My machine" style="verticalLabelPosition=bottom;html=1;verticalAlign=top;align=center;strokeColor=none;fillColor=#00BEF2;shape=mxgraph.azure.laptop;pointerEvents=1;" vertex="1" parent="1">
          <mxGeometry x="50" y="760" width="90" height="60" as="geometry" />
        </mxCell>
        <mxCell id="pOUugHQpZifc-X2HbvZK-38" value="Kubernetes cluster has several nodes&lt;br&gt;(here is three as an example)" style="text;html=1;align=left;verticalAlign=middle;resizable=0;points=[];autosize=1;strokeColor=none;" vertex="1" parent="1">
          <mxGeometry x="564" y="370" width="220" height="30" as="geometry" />
        </mxCell>
        <mxCell id="pOUugHQpZifc-X2HbvZK-39" value="Services are distributed to the nodes&lt;br&gt;and pods respectively" style="text;html=1;align=left;verticalAlign=middle;resizable=0;points=[];autosize=1;strokeColor=none;" vertex="1" parent="1">
          <mxGeometry x="564" y="510" width="210" height="30" as="geometry" />
        </mxCell>
      </root>
    </mxGraphModel>
  </diagram>
</mxfile>
